<svg width="24" height="24" viewBox="0 0 24 24" fill="none" xmlns="http://www.w3.org/2000/svg">
<path fill-rule="evenodd" clip-rule="evenodd" d="M19.614 5.47204C18.6366 4.52252 17.3373 4 15.955 4C14.5725 4 13.2731 4.52252 12.2953 5.47204L11.8137 5.94002L11.3321 5.47204C10.3546 4.52252 9.05488 4 7.67269 4C6.29055 4 4.9907 4.52252 4.01337 5.47204C1.99554 7.43245 1.99554 10.6221 4.01337 12.5818L11.2438 19.6058C11.362 19.7211 11.5092 19.7917 11.663 19.8189C11.7145 19.8287 11.7664 19.8333 11.8184 19.8333C12.0229 19.8333 12.2278 19.7575 12.3836 19.6058L19.614 12.5818C21.6319 10.6221 21.6319 7.43245 19.614 5.47204Z" fill="url(#paint0_linear_23_4091)"/>
<path fill-rule="evenodd" clip-rule="evenodd" d="M7.27245 6.51469C7.30478 6.66285 7.27912 6.80988 7.21133 6.93217C7.12981 7.07925 6.98582 7.19169 6.80623 7.22859C6.46878 7.29719 6.1802 7.49419 6.0149 7.76848C5.83722 8.07518 5.80026 8.45161 5.923 8.87109C6.01746 9.19427 5.83036 9.52677 5.50876 9.61587C5.18522 9.70597 4.84837 9.51788 4.75439 9.19634C4.53869 8.45727 4.607 7.73091 4.96948 7.13868C5.30757 6.5791 5.88327 6.18017 6.54832 6.04438C6.87727 5.97727 7.20155 6.18803 7.27245 6.51469Z" fill="url(#paint1_linear_23_4091)" fill-opacity="0.8"/>
<defs>
<linearGradient id="paint0_linear_23_4091" x1="18.4609" y1="21.0821" x2="18.4609" y2="9.78197" gradientUnits="userSpaceOnUse">
<stop stop-color="#FF30A8"/>
<stop offset="1" stop-color="#FF5A6E"/>
</linearGradient>
<linearGradient id="paint1_linear_23_4091" x1="5.63277" y1="6.71263" x2="5.94179" y2="10.2166" gradientUnits="userSpaceOnUse">
<stop stop-color="white"/>
<stop offset="1" stop-color="white" stop-opacity="0.01"/>
</linearGradient>
</defs>
</svg>