<svg width="24" height="24" viewBox="0 0 24 24" fill="none" xmlns="http://www.w3.org/2000/svg">
<path d="M20.3998 4.80005C20.5372 4.80005 20.6716 4.8137 20.8011 4.84009C20.8221 5.69185 21.508 6.37666 22.3597 6.39771C22.3863 6.52766 22.3998 6.66225 22.3998 6.80005V17.2004C22.3998 17.3379 22.3862 17.4721 22.3597 17.6018C21.5082 17.6228 20.8224 18.3079 20.8011 19.1594C20.6715 19.1858 20.5372 19.2004 20.3998 19.2004H3.59998C3.46215 19.2004 3.32761 19.186 3.19763 19.1594C3.17639 18.3079 2.49164 17.6227 1.64001 17.6018C1.61358 17.4722 1.6 17.3379 1.59998 17.2004V6.80005C1.59998 6.66227 1.61348 6.52765 1.64001 6.39771C2.49183 6.37676 3.17669 5.6919 3.19763 4.84009C3.32758 4.81355 3.46219 4.80005 3.59998 4.80005H20.3998Z" fill="#FFCD00"/>
<path fill-rule="evenodd" clip-rule="evenodd" d="M11.4323 11.3378C11.6354 11.2589 11.8544 11.3091 12.0045 11.4471C12.1631 11.312 12.3928 11.2715 12.5954 11.3622C12.8762 11.4885 13.0028 11.8189 12.8776 12.1014C12.765 12.3541 12.5165 12.5237 12.3082 12.6278V13.8133C12.8418 13.7497 13.2047 13.5153 13.2321 13.4969C13.4869 13.3481 13.8377 13.3902 14.0319 13.5926C14.2256 13.7949 14.1966 14.0875 13.9655 14.2606C13.6035 14.4995 12.9333 14.775 12.1393 14.7987C11.4971 14.8169 10.7749 14.6722 10.067 14.2157C9.8108 14.0504 9.76465 13.7431 9.96352 13.5301C10.1625 13.3175 10.5315 13.279 10.7877 13.4442C11.1017 13.6471 11.4077 13.7545 11.6911 13.8006V12.6366C11.4812 12.5258 11.2163 12.337 11.111 12.0604C11.001 11.7713 11.1452 11.448 11.4323 11.3378ZM8.89516 9.36705C9.22346 9.16158 9.64098 9.14441 9.98598 9.32213C10.506 9.59021 10.7091 10.214 10.443 10.7245C10.1768 11.2349 9.53922 11.4445 9.00942 11.1952C8.65808 11.0297 8.42557 10.6922 8.402 10.3133C8.37845 9.93449 8.56695 9.57253 8.89516 9.36705ZM13.9323 9.369C14.2574 9.164 14.6709 9.1445 15.0153 9.31725C15.5423 9.58179 15.7511 10.21 15.4831 10.7245C15.215 11.2387 14.5708 11.4467 14.0397 11.1903C13.6926 11.0225 13.4644 10.6866 13.442 10.3104C13.4198 9.93407 13.6071 9.57428 13.9323 9.369Z" fill="#94651F"/>
<path d="M4.80002 8.3999V15.5999" stroke="#E7A442" stroke-width="1.1" stroke-linecap="round" stroke-linejoin="round"/>
<path d="M19.2 8.3999V15.5999" stroke="#E7A442" stroke-width="1.1" stroke-linecap="round" stroke-linejoin="round"/>
</svg>